<svg viewBox="255 240.1905 380 221.2295" width="5000" height="2910.9144736842104" xmlns="http://www.w3.org/2000/svg" xmlns:xlink="http://www.w3.org/1999/xlink" preserveAspectRatio="none"><defs></defs><style>.aq6WP-wJgVstrokeColor-str {stroke:#0C0C0C;stroke-opacity:1;}.companyName {fill:#2C3E57;fill-opacity:1;}.icon1 {fill:#9C8B58;fill-opacity:1;}.icon3 {fill:#C8B889;fill-opacity:1;}.icon3-str {stroke:#C8B889;stroke-opacity:1;}.shape {fill:#9C8B58;fill-opacity:1;}.shapeStroke-str {stroke:#2C3E57;stroke-opacity:1;}.text {fill:#1A1245;fill-opacity:1;}</style><g opacity="1" transform="rotate(0 255 395.6553)">
<svg width="128.4607" height="2.1539" x="255" y="395.6553" version="1.1" preserveAspectRatio="none" viewBox="0 0 128.4607 2.1539">
  <rect x="0" y="0" width="128.4607" height="2.1539" class="icon1 shapeStroke-str" style="stroke-width:0;" rx="0px" ry="0px" />
</svg>
</g><g opacity="1" transform="rotate(0 408.9486 370.5781)">
<svg width="72.1029" height="49.2314" x="408.9486" y="370.5781" version="1.1" preserveAspectRatio="none" viewBox="19.99881172180176 45.37599182128906 160.0006866455078 109.24801635742188">
  <g transform="matrix(1 0 0 1 0 0)" ><g><path d="M120.23 154.624c-6.238 0-12.903-.92-19.976-2.761a2.286 2.286 0 0 1-1.709-2.033c-1.549-19.328 2.791-34.715 12.903-45.73 12.783-13.927 35.069-21.078 66.247-21.254.665.166 1.334.296 1.768.818.439.522.622 1.212.499 1.883-5.591 30.676-16.503 51.385-32.436 61.552-7.852 5.011-16.988 7.525-27.296 7.525zm-17.236-6.797c16.793 4.065 30.936 2.514 42.066-4.589 14.356-9.157 24.399-27.914 29.879-55.776-28.387.558-48.602 7.193-60.116 19.735-8.931 9.733-12.907 23.398-11.829 40.63z" data-color="1" class="icon1"></path><path d="M79.769 154.624c-10.31 0-19.443-2.51-27.297-7.525-15.934-10.167-26.847-30.876-32.436-61.552a2.29 2.29 0 0 1 2.255-2.701h.013c31.178.177 53.468 7.329 66.249 21.254 10.107 11.015 14.449 26.402 12.898 45.73a2.286 2.286 0 0 1-1.709 2.033c-7.071 1.84-13.737 2.761-19.973 2.761zM25.063 87.462c5.48 27.861 15.523 46.619 29.875 55.776 11.136 7.108 25.279 8.65 42.063 4.589 1.084-17.232-2.891-30.897-11.822-40.63C73.667 94.655 53.45 88.02 25.063 87.462zm74.105 62.185h.043-.043z" data-color="1" class="icon1"></path><path d="M101.456 150.277c-.464 0-.929-.145-1.329-.426-15.8-11.237-24.795-24.45-26.736-39.275-2.452-18.742 6.398-40.412 26.302-64.411.869-1.052 2.659-1.052 3.528 0 19.904 23.999 28.754 45.668 26.3 64.411-1.939 14.824-10.934 28.038-26.734 39.275a2.325 2.325 0 0 1-1.331.426zm0-99.032c-17.82 22.107-25.731 41.857-23.523 58.739 1.715 13.099 9.626 24.923 23.523 35.171 13.895-10.248 21.808-22.073 23.521-35.171 2.212-16.882-5.701-36.632-23.521-58.739z" data-color="1" class="icon1"></path></g></g>
</svg>
</g><g opacity="1" transform="rotate(0 312.7349 240.1905)">
<svg width="264.5304" height="114.8121" x="312.7349" y="240.1905" version="1.1" preserveAspectRatio="none" viewBox="0.8 -28 161.27999999999997 70">
  <g transform="matrix(1 0 0 1 0 0)" class="companyName"><path id="id-D6z1nYkh9" d="M11.16-27.60L10.64-27.60Q9.20-27.60 8.44-26.36L8.44-26.36Q8.12-25.80 8.08-25.08L8.08-25.08L8.08 0Q8.08 3.36 5.98 5.68Q3.88 8 0.80 8L0.80 8L0.80 7.64Q2.76 6.96 4.12 4.70Q5.48 2.44 5.48-0.12L5.48-0.12L5.48-25.08Q5.44-26.12 4.70-26.86Q3.96-27.60 2.92-27.60L2.92-27.60L2.40-27.60L2.40-28L11.16-28L11.16-27.60Z M22.08-22.98Q25.16-24.56 28.86-24.56Q32.56-24.56 35.64-22.98Q38.72-21.40 40.54-18.52Q42.36-15.64 42.36-12Q42.36-8.36 40.54-5.48Q38.72-2.60 35.64-1.02Q32.56 0.56 29.32 0.56Q26.08 0.56 23.60-0.36Q21.12-1.28 19.30-2.92Q17.48-4.56 16.42-6.92Q15.36-9.28 15.36-12.46Q15.36-15.64 17.18-18.52Q19-21.40 22.08-22.98ZM21.34-3.82Q24.36-0.64 28.84-0.64Q33.32-0.64 36.36-3.82Q39.40-7 39.40-12Q39.40-17 36.36-20.18Q33.32-23.36 28.84-23.36Q24.36-23.36 21.34-20.18Q18.32-17 18.32-12Q18.32-7 21.34-3.82Z M70.92-0.40L70.92-0.40L71.24-0.40L71.24 0L63.04 0L63.04-0.40L63.36-0.40Q64.12-0.40 64.52-0.92Q64.92-1.44 64.92-1.90Q64.92-2.36 64.76-2.80L64.76-2.80L62.56-8.12L52.44-8.12L50.24-2.92Q50.04-2.40 50.04-1.94Q50.04-1.48 50.44-0.94Q50.84-0.40 51.64-0.40L51.64-0.40L51.96-0.40L51.96 0L44.32 0L44.32-0.40L44.64-0.40Q45.48-0.40 46.34-0.98Q47.20-1.56 47.76-2.72L47.76-2.72Q56.52-21.44 56.88-22.32L56.88-22.32Q57.56-24 57.60-24.56L57.60-24.56L57.96-24.56L67.84-2.72Q69-0.40 70.92-0.40ZM57.60-20.28L52.96-9.32L62.08-9.32L57.60-20.28Z M101.60-23.60L100.92-23.60Q100.04-23.60 99.40-23.02Q98.76-22.44 98.72-21.60L98.72-21.60L98.72-4.56Q98.72-2.24 99.00-0.16L99.00-0.16L99.08 0.56L98.72 0.56L77.92-19.16L77.92-2.48Q77.92-1.60 78.56-1Q79.20-0.40 80.12-0.40L80.12-0.40L80.80-0.40L80.80 0L73.24 0L73.24-0.40L73.92-0.40Q74.84-0.40 75.48-1Q76.12-1.60 76.12-2.48L76.12-2.48L76.12-19.60Q76.12-22.04 75.84-23.96L75.84-23.96L75.76-24.60L76.20-24.56L96.96-5L96.96-21.60Q96.88-22.44 96.24-23.02Q95.60-23.60 94.72-23.60L94.72-23.60L94.04-23.60L94.04-24L101.60-24L101.60-23.60Z M133.16-23.60L132.48-23.60Q131.60-23.60 130.96-23.02Q130.32-22.44 130.28-21.60L130.28-21.60L130.28-4.56Q130.28-2.24 130.56-0.16L130.56-0.16L130.64 0.56L130.28 0.56L109.48-19.16L109.48-2.48Q109.48-1.60 110.12-1Q110.76-0.40 111.68-0.40L111.68-0.40L112.36-0.40L112.36 0L104.80 0L104.80-0.40L105.48-0.40Q106.40-0.40 107.04-1Q107.68-1.60 107.68-2.48L107.68-2.48L107.68-19.60Q107.68-22.04 107.40-23.96L107.40-23.96L107.32-24.60L107.76-24.56L128.52-5L128.52-21.60Q128.44-22.44 127.80-23.02Q127.16-23.60 126.28-23.60L126.28-23.60L125.60-23.60L125.60-24L133.16-24L133.16-23.60Z M161.76-0.40L161.76-0.40L162.08-0.40L162.08 0L153.88 0L153.88-0.40L154.20-0.40Q154.96-0.40 155.36-0.92Q155.76-1.44 155.76-1.90Q155.76-2.36 155.60-2.80L155.60-2.80L153.40-8.12L143.28-8.12L141.08-2.92Q140.88-2.40 140.88-1.94Q140.88-1.48 141.28-0.94Q141.68-0.40 142.48-0.40L142.48-0.40L142.80-0.40L142.80 0L135.16 0L135.16-0.40L135.48-0.40Q136.32-0.40 137.18-0.98Q138.04-1.56 138.60-2.72L138.60-2.72Q147.36-21.44 147.72-22.32L147.72-22.32Q148.40-24 148.44-24.56L148.44-24.56L148.80-24.56L158.68-2.72Q159.84-0.40 161.76-0.40ZM148.44-20.28L143.80-9.32L152.92-9.32L148.44-20.28Z M52.58 41.60L52.58 41.60L53.10 41.60L53.10 42L44.34 42L44.34 41.60L44.86 41.60Q45.90 41.60 46.64 40.86Q47.38 40.12 47.42 39.08L47.42 39.08L47.42 16.88Q47.38 15.84 46.64 15.12Q45.90 14.40 44.86 14.40L44.86 14.40L44.34 14.40L44.34 14L53.10 14L53.10 14.40L52.58 14.40Q51.54 14.40 50.80 15.12Q50.06 15.84 50.02 16.88L50.02 16.88L50.02 39.08Q50.02 40.12 50.78 40.86Q51.54 41.60 52.58 41.60ZM68.66 41.60L68.66 42L66.94 42Q62.86 42 60.94 39.72L60.94 39.72L51.30 28.08L60.74 16.24Q61.06 15.84 61.06 15.52Q61.06 15.20 60.94 14.96L60.94 14.96Q60.62 14.36 59.78 14.36L59.78 14.36L59.38 14.36L59.38 14L67.82 14L67.82 14.36L67.66 14.36Q65.02 14.36 63.34 16.24L63.34 16.24L53.94 27.12L64.86 39.96Q66.46 41.56 68.66 41.60L68.66 41.60Z M95.42 41.60L95.42 41.60L95.74 41.60L95.74 42L87.54 42L87.54 41.60L87.86 41.60Q88.62 41.60 89.02 41.08Q89.42 40.56 89.42 40.10Q89.42 39.64 89.26 39.20L89.26 39.20L87.06 33.88L76.94 33.88L74.74 39.08Q74.54 39.60 74.54 40.06Q74.54 40.52 74.94 41.06Q75.34 41.60 76.14 41.60L76.14 41.60L76.46 41.60L76.46 42L68.82 42L68.82 41.60L69.14 41.60Q69.98 41.60 70.84 41.02Q71.70 40.44 72.26 39.28L72.26 39.28Q81.02 20.56 81.38 19.68L81.38 19.68Q82.06 18 82.10 17.44L82.10 17.44L82.46 17.44L92.34 39.28Q93.50 41.60 95.42 41.60ZM82.10 21.72L77.46 32.68L86.58 32.68L82.10 21.72Z M118.54 18L118.54 18.40L118.06 18.40Q116.98 18.40 116 18.98Q115.02 19.56 114.38 20.44L114.38 20.44L106.70 32.08L106.70 39.44Q106.70 40.32 107.38 40.96Q108.06 41.60 109.02 41.60L109.02 41.60L109.50 41.60L109.50 42L101.30 42L101.30 41.60L101.78 41.60Q102.74 41.60 103.42 40.96Q104.10 40.32 104.10 39.44L104.10 39.44L104.10 32.04L96.70 20.40Q95.34 18.40 93.02 18.40L93.02 18.40L92.54 18.40L92.54 18L101.82 18L101.82 18.40L101.34 18.40Q100.58 18.40 100.24 18.88Q99.90 19.36 99.90 19.70Q99.90 20.04 99.98 20.32L99.98 20.32L105.82 30.68L112.02 20.36Q112.14 20.04 112.14 19.70Q112.14 19.36 111.80 18.88Q111.46 18.40 110.66 18.40L110.66 18.40L110.18 18.40L110.18 18L118.54 18Z"/></g>
</svg>
</g><g opacity="1" transform="rotate(0 506.5393 395.6553)">
<svg width="128.4607" height="2.1539" x="506.5393" y="395.6553" version="1.1" preserveAspectRatio="none" viewBox="0 0 128.4607 2.1539">
  <rect x="0" y="0" width="128.4607" height="2.1539" class="icon1 aq6WP-wJgVstrokeColor-str" style="stroke-width:0;" rx="0px" ry="0px" />
</svg>
</g><g opacity="1" transform="rotate(0 356.2177 442.42)">
<svg width="177.5648" height="19" x="356.2177" y="442.42" version="1.1" preserveAspectRatio="none" viewBox="0.08 -28.24 266.16 28.48">
  <g transform="matrix(1 0 0 1 0 0)" class="text"><path id="id-jsG518YwB10" d="M25.48 0L22.12-7.48L6.52-7.48L3.16 0L0.08 0L12.88-28L15.80-28L28.60 0L25.48 0ZM7.60-9.88L21.04-9.88L14.32-24.92L7.60-9.88Z M38.20-2.56L55.04-2.56L55.04 0L35.24 0L35.24-28L54.44-28L54.44-25.44L38.20-25.44L38.20-15.48L52.68-15.48L52.68-12.96L38.20-12.96L38.20-2.56Z M71.72 0.24Q68.60 0.24 65.74-0.76Q62.88-1.76 61.32-3.40L61.32-3.40L62.48-5.68Q64-4.16 66.52-3.22Q69.04-2.28 71.72-2.28L71.72-2.28Q75.48-2.28 77.36-3.66Q79.24-5.04 79.24-7.24L79.24-7.24Q79.24-8.92 78.22-9.92Q77.20-10.92 75.72-11.46Q74.24-12 71.60-12.64L71.60-12.64Q68.44-13.44 66.56-14.18Q64.68-14.92 63.34-16.44Q62-17.96 62-20.56L62-20.56Q62-22.68 63.12-24.42Q64.24-26.16 66.56-27.20Q68.88-28.24 72.32-28.24L72.32-28.24Q74.72-28.24 77.02-27.58Q79.32-26.92 81-25.76L81-25.76L80-23.40Q78.24-24.56 76.24-25.14Q74.24-25.72 72.32-25.72L72.32-25.72Q68.64-25.72 66.78-24.30Q64.92-22.88 64.92-20.64L64.92-20.64Q64.92-18.96 65.94-17.94Q66.96-16.92 68.50-16.38Q70.04-15.84 72.64-15.20L72.64-15.20Q75.72-14.44 77.62-13.70Q79.52-12.96 80.84-11.46Q82.16-9.96 82.16-7.40L82.16-7.40Q82.16-5.28 81.02-3.54Q79.88-1.80 77.52-0.78Q75.16 0.24 71.72 0.24L71.72 0.24Z M95.64 0L95.64-25.44L85.80-25.44L85.80-28L108.44-28L108.44-25.44L98.60-25.44L98.60 0L95.64 0Z M135.64-28L138.56-28L138.56 0L135.64 0L135.64-12.92L118.12-12.92L118.12 0L115.16 0L115.16-28L118.12-28L118.12-15.52L135.64-15.52L135.64-28Z M152.64-2.56L169.48-2.56L169.48 0L149.68 0L149.68-28L168.88-28L168.88-25.44L152.64-25.44L152.64-15.48L167.12-15.48L167.12-12.96L152.64-12.96L152.64-2.56Z M183.88 0L183.88-25.44L174.04-25.44L174.04-28L196.68-28L196.68-25.44L186.84-25.44L186.84 0L183.88 0Z M203.40 0L203.40-28L206.36-28L206.36 0L203.40 0Z M229.64 0.24Q225.48 0.24 222.14-1.60Q218.80-3.44 216.90-6.70Q215.00-9.96 215.00-14L215.00-14Q215.00-18.04 216.90-21.30Q218.80-24.56 222.16-26.40Q225.52-28.24 229.68-28.24L229.68-28.24Q232.80-28.24 235.44-27.20Q238.08-26.16 239.92-24.16L239.92-24.16L238.04-22.28Q234.76-25.60 229.76-25.60L229.76-25.60Q226.44-25.60 223.72-24.08Q221.00-22.56 219.46-19.92Q217.92-17.28 217.92-14L217.92-14Q217.92-10.72 219.46-8.08Q221.00-5.44 223.72-3.92Q226.44-2.40 229.76-2.40L229.76-2.40Q234.80-2.40 238.04-5.76L238.04-5.76L239.92-3.88Q238.08-1.88 235.42-0.82Q232.76 0.24 229.64 0.24L229.64 0.24Z M255.80 0.24Q252.68 0.24 249.82-0.76Q246.96-1.76 245.40-3.40L245.40-3.40L246.56-5.68Q248.08-4.16 250.60-3.22Q253.12-2.28 255.80-2.28L255.80-2.28Q259.56-2.28 261.44-3.66Q263.32-5.04 263.32-7.24L263.32-7.24Q263.32-8.92 262.30-9.92Q261.28-10.92 259.80-11.46Q258.32-12 255.68-12.64L255.68-12.64Q252.52-13.44 250.64-14.18Q248.76-14.92 247.42-16.44Q246.08-17.96 246.08-20.56L246.08-20.56Q246.08-22.68 247.20-24.42Q248.32-26.16 250.64-27.20Q252.96-28.24 256.40-28.24L256.40-28.24Q258.80-28.24 261.10-27.58Q263.40-26.92 265.08-25.76L265.08-25.76L264.08-23.40Q262.32-24.56 260.32-25.14Q258.32-25.72 256.40-25.72L256.40-25.72Q252.72-25.72 250.86-24.30Q249-22.88 249-20.64L249-20.64Q249-18.96 250.02-17.94Q251.04-16.92 252.58-16.38Q254.12-15.84 256.72-15.20L256.72-15.20Q259.80-14.44 261.70-13.70Q263.60-12.96 264.92-11.46Q266.24-9.96 266.24-7.40L266.24-7.40Q266.24-5.28 265.10-3.54Q263.96-1.80 261.60-0.78Q259.24 0.24 255.80 0.24L255.80 0.24Z"/></g>
</svg>
</g></svg>